<svg width="48" height="48" viewBox="0 0 48 48" fill="none" xmlns="http://www.w3.org/2000/svg">
<mask id="path-1-inside-1_4_136" fill="white">
<path fill-rule="evenodd" clip-rule="evenodd" d="M16.3188 10C15.5187 10 14.7957 10.4768 14.4805 11.2122L12 17H8C3.58172 17 0 20.5817 0 25V36C0 40.4183 3.58172 44 8 44H40C44.4183 44 48 40.4183 48 36V25C48 20.5817 44.4183 17 40 17H35.25L32.5375 11.1578C32.2097 10.4517 31.502 10 30.7235 10H16.3188Z"/>
</mask>
<path d="M14.4805 11.2122L17.2379 12.3939V12.3939L14.4805 11.2122ZM12 17V20H13.9782L14.7574 18.1818L12 17ZM35.25 17L32.529 18.2633L33.3353 20H35.25V17ZM32.5375 11.1578L29.8165 12.4211V12.4211L32.5375 11.1578ZM17.2379 12.3939C17.0804 12.7616 16.7188 13 16.3188 13V7C14.3187 7 12.511 8.19199 11.7231 10.0304L17.2379 12.3939ZM14.7574 18.1818L17.2379 12.3939L11.7231 10.0304L9.24257 15.8182L14.7574 18.1818ZM8 20H12V14H8V20ZM3 25C3 22.2386 5.23858 20 8 20V14C1.92487 14 -3 18.9249 -3 25H3ZM3 36V25H-3V36H3ZM8 41C5.23858 41 3 38.7614 3 36H-3C-3 42.0751 1.92487 47 8 47V41ZM40 41H8V47H40V41ZM45 36C45 38.7614 42.7614 41 40 41V47C46.0751 47 51 42.0751 51 36H45ZM45 25V36H51V25H45ZM40 20C42.7614 20 45 22.2386 45 25H51C51 18.9249 46.0751 14 40 14V20ZM35.25 20H40V14H35.25V20ZM29.8165 12.4211L32.529 18.2633L37.971 15.7367L35.2586 9.89444L29.8165 12.4211ZM30.7235 13C30.3343 13 29.9804 12.7742 29.8165 12.4211L35.2586 9.89445C34.439 8.12925 32.6697 7 30.7235 7V13ZM16.3188 13H30.7235V7H16.3188V13Z" fill="#233864" mask="url(#path-1-inside-1_4_136)"/>
<circle cx="23" cy="30" r="6.5" stroke="#FF498B" stroke-width="3"/>
<path d="M34 24L37.5 24L41 24" stroke="#233864" stroke-width="3" stroke-linecap="round" stroke-linejoin="round"/>
</svg>
