<svg width="48" height="48" viewBox="0 0 48 48" fill="none" xmlns="http://www.w3.org/2000/svg">
<g clip-path="url(#clip0_7_659)">
<rect width="48" height="48" fill="white"/>
<path d="M29 5.00002V5.00002C29 3.06702 30.567 1.50001 32.5 1.50001L38 1.5C40.2091 1.5 42 3.29086 42 5.5L42 22.5" stroke="#233864" stroke-width="3" stroke-linecap="round" stroke-linejoin="round"/>
<path d="M34 8C34 6.89543 33.1046 6 32 6H27C25.8954 6 25 6.89543 25 8V9H34V8Z" stroke="#FF498B" stroke-width="3" stroke-linecap="round" stroke-linejoin="round"/>
<path d="M1.5 23.5H46.5V30C46.5 34.6944 42.6944 38.5 38 38.5H10C5.30558 38.5 1.5 34.6944 1.5 30V23.5Z" stroke="#233864" stroke-width="3"/>
<path d="M9 39V42.5V46" stroke="#233864" stroke-width="3" stroke-linecap="round" stroke-linejoin="round"/>
<path d="M39 39V42.5V46" stroke="#233864" stroke-width="3" stroke-linecap="round" stroke-linejoin="round"/>
</g>
<defs>
<clipPath id="clip0_7_659">
<rect width="48" height="48" fill="white"/>
</clipPath>
</defs>
</svg>
