<svg width="48" height="48" viewBox="0 0 48 48" fill="none" xmlns="http://www.w3.org/2000/svg">
<path d="M35.5 40C35.5 41.466 34.4881 43.0586 32.2812 44.3664C30.1072 45.6547 27.006 46.5 23.5 46.5C19.994 46.5 16.8928 45.6547 14.7188 44.3664C12.5119 43.0586 11.5 41.466 11.5 40C11.5 38.534 12.5119 36.9414 14.7188 35.6336C16.8928 34.3453 19.994 33.5 23.5 33.5C27.006 33.5 30.1072 34.3453 32.2812 35.6336C34.4881 36.9414 35.5 38.534 35.5 40Z" stroke="#233864" stroke-width="3"/>
<path d="M35.5 16.1647C35.5 17.3842 35.1714 19.56 34.5215 22.2129C33.8792 24.8347 32.9491 27.8175 31.8038 30.6201C30.6526 33.4374 29.314 35.9981 27.8798 37.8271C26.3987 39.716 25.0766 40.5 24 40.5C22.9234 40.5 21.6013 39.716 20.1202 37.8271C18.686 35.9981 17.3474 33.4374 16.1962 30.6201C15.0509 27.8175 14.1208 24.8347 13.4785 22.2129C12.8286 19.56 12.5 17.3842 12.5 16.1647C12.5 11.702 17.2841 7.5 24 7.5C30.7159 7.5 35.5 11.702 35.5 16.1647Z" fill="white" stroke="#233864" stroke-width="3"/>
<circle cx="24" cy="18" r="4.5" fill="white" stroke="#FF498B" stroke-width="3"/>
</svg>
