<svg width="25" height="23" viewBox="0 0 25 23" fill="none" xmlns="http://www.w3.org/2000/svg">
<path d="M22 3H3C1.89543 3 1 3.89543 1 5V20C1 21.1046 1.89543 22 3 22H22C23.1046 22 24 21.1046 24 20V5C24 3.89543 23.1046 3 22 3Z" stroke="white" stroke-width="2"/>
<path d="M1 8H24" stroke="white" stroke-width="2"/>
<path d="M6 5V1" stroke="white" stroke-width="2" stroke-linecap="round"/>
<path d="M20 5V1" stroke="white" stroke-width="2" stroke-linecap="round"/>
<mask id="mask0_1_14" style="mask-type:alpha" maskUnits="userSpaceOnUse" x="5" y="11" width="7" height="7">
<path d="M6 11.5H11C11.2761 11.5 11.5 11.7239 11.5 12V17C11.5 17.2761 11.2761 17.5 11 17.5H6C5.72386 17.5 5.5 17.2761 5.5 17V12C5.5 11.7239 5.72386 11.5 6 11.5Z" fill="white" stroke="#1E1E1E"/>
</mask>
<g mask="url(#mask0_1_14)">
<path d="M11 11H6C5.44772 11 5 11.4477 5 12V17C5 17.5523 5.44772 18 6 18H11C11.5523 18 12 17.5523 12 17V12C12 11.4477 11.5523 11 11 11Z" stroke="white" stroke-width="4"/>
</g>
<mask id="mask1_1_14" style="mask-type:alpha" maskUnits="userSpaceOnUse" x="13" y="11" width="7" height="7">
<path d="M14 11.5H19C19.2761 11.5 19.5 11.7239 19.5 12V17C19.5 17.2761 19.2761 17.5 19 17.5H14C13.7239 17.5 13.5 17.2761 13.5 17V12C13.5 11.7239 13.7239 11.5 14 11.5Z" fill="white" stroke="#1E1E1E"/>
</mask>
<g mask="url(#mask1_1_14)">
<path d="M19 11H14C13.4477 11 13 11.4477 13 12V17C13 17.5523 13.4477 18 14 18H19C19.5523 18 20 17.5523 20 17V12C20 11.4477 19.5523 11 19 11Z" stroke="white" stroke-width="4"/>
</g>
</svg>
