<svg width="48" height="48" viewBox="0 0 48 48" fill="none" xmlns="http://www.w3.org/2000/svg">
<g clip-path="url(#clip0_7_644)">
<rect width="48" height="48" fill="white"/>
<path d="M6.37686 3.77614C6.4908 2.76459 7.34635 2 8.3643 2H22.1357C23.1537 2 24.0092 2.76459 24.1231 3.77614L25.2495 13.7761C25.3831 14.9619 24.4553 16 23.2621 16H7.23792C6.04469 16 5.11693 14.9619 5.25049 13.7761L6.37686 3.77614Z" stroke="#FF498B" stroke-width="3" stroke-linecap="round" stroke-linejoin="round"/>
<path d="M24 38V42V46" stroke="#233864" stroke-width="3" stroke-linecap="round" stroke-linejoin="round"/>
<path d="M6 38V41.5V46" stroke="#233864" stroke-width="3" stroke-linecap="round" stroke-linejoin="round"/>
<path d="M6 41H15H24" stroke="#233864" stroke-width="3" stroke-linecap="round" stroke-linejoin="round"/>
<path d="M21 16V18V20" stroke="#233864" stroke-width="3" stroke-linecap="round" stroke-linejoin="round"/>
<path d="M15 18V21.5V25" stroke="#233864" stroke-width="3" stroke-linecap="round" stroke-linejoin="round"/>
<mask id="path-7-inside-1_7_644" fill="white">
<path d="M0 27C0 25.8954 0.895431 25 2 25H28C29.1046 25 30 25.8954 30 27V36C30 37.1046 29.1046 38 28 38H2C0.89543 38 0 37.1046 0 36V27Z"/>
</mask>
<path d="M0 27C0 25.8954 0.895431 25 2 25H28C29.1046 25 30 25.8954 30 27V36C30 37.1046 29.1046 38 28 38H2C0.89543 38 0 37.1046 0 36V27Z" stroke="#233864" stroke-width="6" mask="url(#path-7-inside-1_7_644)"/>
</g>
<defs>
<clipPath id="clip0_7_644">
<rect width="48" height="48" fill="white"/>
</clipPath>
</defs>
</svg>
