<svg width="48" height="48" viewBox="0 0 48 48" fill="none" xmlns="http://www.w3.org/2000/svg">
<circle cx="20" cy="34" r="5" fill="#FF498B"/>
<path d="M28.7429 29.04L27.6636 27.821C26.1554 26.1177 24.1456 24.9371 21.9236 24.4491L21.6131 24.3809C20.2319 24.0776 18.7998 24.0912 17.4246 24.4206V24.4206C15.321 24.9246 13.4568 26.1416 12.1491 27.8647L11.2571 29.04" stroke="#233864" stroke-width="3" stroke-linecap="round" stroke-linejoin="round"/>
<path d="M31.8286 23.92L31.0154 23.2412C28.5365 21.1718 25.5469 19.807 22.3595 19.2897L21.9188 19.2181C20.2137 18.9414 18.4742 18.9538 16.7732 19.255V19.255C13.7375 19.7926 10.9334 21.2301 8.72481 23.3811L8.17147 23.92" stroke="#FF498B" stroke-width="3" stroke-linecap="round" stroke-linejoin="round"/>
<path d="M34.9142 18.8L32.122 16.8938C30.0221 15.4602 27.6905 14.4001 25.2298 13.7601L25.0304 13.7083C21.7255 12.8488 18.2622 12.7988 14.9339 13.5625V13.5625C11.5995 14.3277 8.49929 15.8869 5.897 18.1076L5.08567 18.8" stroke="#233864" stroke-width="3" stroke-linecap="round" stroke-linejoin="round"/>
<path d="M38 14.96L34.381 11.8637C31.3602 9.27932 27.7176 7.52757 23.8129 6.78147L23.6296 6.74644C21.0465 6.25288 18.3955 6.23011 15.8043 6.67925V6.67925C11.1575 7.4847 6.89647 9.77337 3.65897 13.2027L2 14.96" stroke="#FF498B" stroke-width="3" stroke-linecap="round" stroke-linejoin="round"/>
</svg>
