<svg width="33" height="34" viewBox="0 0 33 34" fill="none" xmlns="http://www.w3.org/2000/svg">
<path d="M14.7838 1.56322C15.3448 -0.354869 18.062 -0.354868 18.623 1.56322L20.9308 9.45404C21.1802 10.3067 21.9621 10.8926 22.8504 10.8926H30.7312C32.6174 10.8926 33.4551 13.2642 31.9874 14.4489L25.2621 19.8771C24.6337 20.3843 24.372 21.2197 24.5987 21.9949L27.0804 30.4799C27.6303 32.3602 25.4291 33.8281 23.9046 32.5976L17.9595 27.7991C17.2266 27.2075 16.1802 27.2075 15.4472 27.7991L9.50211 32.5976C7.97766 33.8281 5.77644 32.3602 6.32638 30.4799L8.80804 21.9949C9.03474 21.2197 8.77304 20.3843 8.14461 19.8771L1.41936 14.4489C-0.048403 13.2642 0.789299 10.8926 2.67551 10.8926H10.5563C11.4447 10.8926 12.2265 10.3067 12.4759 9.45404L14.7838 1.56322Z" fill="#F3D97D"/>
</svg>
